<svg width="114" height="67" viewBox="0 0 114 67" fill="none" xmlns="http://www.w3.org/2000/svg">
<path d="M56.8876 51.3888C56.7004 59.8108 50.6302 66.501 43.3295 66.3319C36.0289 66.1628 30.2623 59.1984 30.4495 50.7765C30.6368 42.3545 36.7069 35.6643 44.0076 35.8334C51.3083 36.0025 57.0748 42.9669 56.8876 51.3888Z" fill="black"/>
<path fill-rule="evenodd" clip-rule="evenodd" d="M109.028 45.7685C109.966 42.0944 109.216 37.5471 107.635 32.6349C106.523 29.1793 103.31 26.2836 98.1337 24.8114C92.9886 23.3481 86.3375 23.466 79.4834 25.7511C72.0042 28.2446 63.8947 31.2363 58.0962 34.7442C55.182 36.5072 53.1705 38.2155 52.0669 39.783C51.0639 41.2076 50.9296 42.2968 51.2871 43.4075C51.4159 43.8077 51.812 44.5066 52.8182 45.4367C53.8031 46.3472 55.1954 47.3148 56.9864 48.2864C60.5686 50.2296 65.3552 51.9794 70.6247 53.3029C75.8759 54.6219 81.4622 55.4813 86.5899 55.7149C91.7771 55.9511 96.2243 55.5335 99.3373 54.4957C105.823 52.3335 108.191 49.0473 109.028 45.7685ZM100.531 58.2037C115.474 53.2217 114.541 41.5854 111.27 31.4231C107.999 21.2607 93.2329 17.0612 78.2898 22.0431C63.3467 27.0251 44.381 34.457 47.6522 44.6193C50.9235 54.7817 85.5877 63.1856 100.531 58.2037Z" fill="black"/>
<path fill-rule="evenodd" clip-rule="evenodd" d="M6.13037 12.3329C7.94674 9.55138 11.366 7.19683 15.552 5.10524C18.5165 3.624 22.2817 3.79587 26.199 5.87178C30.1149 7.94686 33.9172 11.8246 36.4718 17.1206C39.3531 23.0938 42.2394 29.6523 43.4152 35.1267C44.0046 37.8706 44.0797 39.9807 43.7514 41.4566C43.463 42.7526 42.9025 43.4854 41.9253 43.9737C41.0809 44.3956 38.9925 44.5829 35.3872 43.6061C32.0025 42.6892 28.0141 40.9466 24.0047 38.6549C20.0087 36.3709 16.1201 33.6148 12.9213 30.7588C9.67055 27.8565 7.36398 25.0563 6.24489 22.7364C3.90184 17.8789 4.5602 14.7374 6.13037 12.3329ZM2.81047 24.4524C-2.9455 12.5196 5.23568 5.91438 13.863 1.60364C22.4903 -2.7071 34.1502 3.47177 39.9062 15.4046C45.6622 27.3373 52.2416 43.1645 43.6143 47.4753C34.987 51.786 8.56645 36.3852 2.81047 24.4524Z" fill="black"/>
</svg>
