<svg width="261" height="396" viewBox="0 0 261 396" fill="none" xmlns="http://www.w3.org/2000/svg">
<rect width="261" height="396" rx="10" fill="white"/>
<path d="M110.422 139.507C117.468 136.626 124.474 135.186 131.439 135.186C138.485 135.186 145.491 136.626 152.457 139.507C165.668 154.789 163.467 170.791 145.852 187.513C170.673 178.712 185.085 186.313 189.088 210.316C172.274 240.72 154.259 241.761 135.042 213.437C132.64 233.76 136.003 248.722 145.131 258.323L141.048 261.923H121.831L118.589 258.323C127.156 248.722 130.238 233.76 127.836 213.437C108.62 241.761 90.6048 240.72 73.7905 210.316C77.7939 186.313 93.0068 178.712 119.429 187.513C100.853 168.631 97.8509 152.629 110.422 139.507Z" fill="#DE1C24"/>
</svg>
