<svg width="102" height="103" viewBox="0 0 102 103" fill="none" xmlns="http://www.w3.org/2000/svg">
<path d="M101.91 51.0376C101.91 79.2168 79.1284 102.061 51.0261 102.061C22.9239 102.061 0.142578 79.2168 0.142578 51.0376C0.142578 22.8583 22.9239 0.0145264 51.0261 0.0145264C79.1284 0.0145264 101.91 22.8583 101.91 51.0376Z" fill="#FFFEFE"/>
<path fill-rule="evenodd" clip-rule="evenodd" d="M51.0261 100.36C78.1916 100.36 100.214 78.2775 100.214 51.0376C100.214 23.7976 78.1916 1.71529 51.0261 1.71529C23.8607 1.71529 1.8387 23.7976 1.8387 51.0376C1.8387 78.2775 23.8607 100.36 51.0261 100.36ZM51.0261 102.061C79.1284 102.061 101.91 79.2168 101.91 51.0376C101.91 22.8583 79.1284 0.0145264 51.0261 0.0145264C22.9239 0.0145264 0.142578 22.8583 0.142578 51.0376C0.142578 79.2168 22.9239 102.061 51.0261 102.061Z" fill="#830B0B"/>
<path d="M87.0688 50.4643C87.0688 70.728 70.6947 87.155 50.4963 87.155C30.2978 87.155 13.9237 70.728 13.9237 50.4643C13.9237 30.2006 30.2978 13.7736 50.4963 13.7736C70.6947 13.7736 87.0688 30.2006 87.0688 50.4643Z" fill="#FFFEFE"/>
<path fill-rule="evenodd" clip-rule="evenodd" d="M50.4963 84.9968C69.5066 84.9968 84.9175 69.5361 84.9175 50.4643C84.9175 31.3925 69.5066 15.9318 50.4963 15.9318C31.4859 15.9318 16.075 31.3925 16.075 50.4643C16.075 69.5361 31.4859 84.9968 50.4963 84.9968ZM50.4963 87.155C70.6947 87.155 87.0688 70.728 87.0688 50.4643C87.0688 30.2006 70.6947 13.7736 50.4963 13.7736C30.2978 13.7736 13.9237 30.2006 13.9237 50.4643C13.9237 70.728 30.2978 87.155 50.4963 87.155Z" fill="#830B0B"/>
<path d="M38.3054 2.16827L50.2861 1.16113L62.6871 2.16827L62.0566 16.0667L50.7065 14.2539L39.1462 16.0667L38.3054 2.16827Z" fill="#830B0B"/>
<path d="M39.3655 83.7152L50.8252 85.2201L62.6871 83.7152V99.6241L50.8252 100.914L39.3655 99.6241V83.7152Z" fill="#830B0B"/>
<path d="M83.8883 62.0388L85.5635 51.2451L83.8883 38.9984H99.3837L100.849 51.2451L99.3837 63.0767L83.8883 62.0388Z" fill="#830B0B"/>
<path d="M3.08566 63.0767L1.20264 50.0293L3.08566 37.8518L17.1038 38.2867L15.6392 50.0293L17.1038 62.2068L3.08566 63.0767Z" fill="#830B0B"/>
<path d="M82.6163 34.8802L76.0438 26.2543L66.7151 18.5102L77.1929 7.95876L87.2806 15.7465L93.6838 26.2543L82.6163 34.8802Z" fill="#830B0B"/>
<path d="M18.5873 35.3055L25.5838 25.1009L34.7004 18.723L24.2654 7.66805L14.983 15.9593L7.77452 25.9636L18.5873 35.3055Z" fill="#830B0B"/>
<path d="M23.8423 93.2332L14.1358 85.478L7.35134 74.9376L18.3761 65.494L24.5245 74.9376L33.6412 81.6513L23.8423 93.2332Z" fill="#830B0B"/>
<path d="M77.6533 93.3594L87.705 85.6908L94.1443 75.0638L82.8286 66.3445L76.6802 75.0638L67.9876 81.4389L77.6533 93.3594Z" fill="#830B0B"/>
</svg>
