<svg width="69" height="110" viewBox="0 0 69 110" fill="none" xmlns="http://www.w3.org/2000/svg">
<path d="M63.4355 9.60806V38.6786H55.6452C55.3272 36.5435 54.7972 34.2852 54.0553 31.9037C53.3134 29.5222 52.2535 27.305 50.8756 25.252C49.6037 23.1168 47.9608 21.2281 45.947 19.5857C44.0392 17.9433 41.6544 16.7525 38.7926 16.0134V43.729C42.7143 44.7966 46.477 45.9873 50.0807 47.3012C53.7903 48.533 57.023 50.1344 59.7788 52.1053C62.5346 54.0762 64.7604 56.4987 66.4562 59.3729C68.1521 62.2471 69 65.7783 69 69.9664C69 73.5797 68.3641 77.0698 67.0922 80.4367C65.8203 83.7215 63.9124 86.6779 61.3687 89.3057C58.8249 91.8514 55.6452 93.8634 51.8295 95.3416C48.1198 96.9018 43.7742 97.723 38.7926 97.8052V110H29.8894V97.1892C26.7097 96.6144 23.6359 95.7522 20.6682 94.6025C17.7005 93.3707 14.7857 91.6872 11.924 89.5521L6.51843 95.3416H0V64.7928H7.79032C9.06221 69.3094 10.4931 73.128 12.083 76.2486C13.6728 79.2871 15.4217 81.8328 17.3295 83.8858C19.2373 85.8567 21.2512 87.3759 23.371 88.4435C25.4908 89.4289 27.6636 90.168 29.8894 90.6607V61.9597C26.9217 61.2206 23.7949 60.3173 20.5092 59.2497C17.2235 58.1 14.1498 56.5398 11.288 54.5689C8.53226 52.598 6.25346 50.0523 4.45161 46.9317C2.64977 43.729 1.74885 39.6641 1.74885 34.7368C1.74885 31.2057 2.43779 27.9209 3.81567 24.8824C5.19355 21.844 7.10138 19.2161 9.53917 16.9989C11.977 14.7816 14.9447 13.0161 18.4424 11.7021C21.9401 10.3061 25.7558 9.44382 29.8894 9.11534V0H38.7926V9.36171C42.3963 9.85443 45.417 10.6756 47.8548 11.8253C50.3986 12.8929 52.4124 13.9194 53.8963 14.9048L56.5991 9.60806H63.4355ZM54.8502 78.8354C54.8502 77.0287 54.4263 75.4274 53.5783 74.0314C52.7304 72.5532 51.5645 71.2393 50.0807 70.0896C48.5968 68.8578 46.8479 67.8313 44.8341 67.0101C42.9263 66.1068 40.9124 65.2856 38.7926 64.5465V91.3998C43.1383 91.3998 46.9009 90.2912 50.0807 88.0739C53.2604 85.7745 54.8502 82.695 54.8502 78.8354ZM15.8986 28.2083C15.8986 30.0971 16.2696 31.7395 17.0115 33.1355C17.8594 34.5315 18.9194 35.7633 20.1912 36.8309C21.4631 37.8985 22.947 38.8018 24.6429 39.5409C26.3387 40.1978 28.0876 40.8137 29.8894 41.3886V15.3975C26.1797 15.8081 22.894 17.081 20.0323 19.2161C17.2765 21.3513 15.8986 24.3486 15.8986 28.2083Z" fill="#D2963D"/>
</svg>
