<svg width="94" height="98" viewBox="0 0 94 98" fill="none" xmlns="http://www.w3.org/2000/svg">
<path d="M45.9878 2.28058C45.9595 1.04467 46.8554 0.0166201 47.9889 0.0425736C58.2669 0.277893 68.2095 4.05787 76.2436 10.823C84.8114 18.0376 90.6541 28.1801 92.7337 39.4487C94.8133 50.7173 92.9952 62.3824 87.6023 72.3718C82.2095 82.3611 73.5911 90.028 63.2781 94.0104C52.9652 97.9928 41.6254 98.0328 31.2732 94.1234C20.9211 90.214 12.2268 82.6083 6.73495 72.6574C1.24307 62.7064 -0.690842 51.0546 1.27676 39.7717C3.12497 29.1735 8.30315 19.5454 15.966 12.3867C16.7987 11.6087 18.0476 11.7479 18.7652 12.6581L43.2999 43.7734C44.5592 45.3705 46.9541 44.3723 46.9058 42.2705L45.9878 2.28058Z" fill="#329F37"/>
</svg>
