<svg width="1041" height="600" viewBox="0 0 1041 600" fill="none" xmlns="http://www.w3.org/2000/svg">
<path d="M646.257 186.451C651.474 185.032 665.17 184.322 670.388 178.643C675.605 172.964 688.65 151.669 689.954 139.601C691.258 127.534 689.954 106.238 689.954 97.7198C689.954 89.2015 689.954 51.5794 694.519 33.1232C699.064 14.7511 724.936 6.93 736.751 3.35817L736.912 3.30943C748.652 -0.239827 781.262 -3.78831 794.958 8.98825C808.654 21.7648 813.872 29.574 814.524 51.5794C815.176 73.5848 800.176 93.4606 800.176 93.4606C800.176 93.4606 780.61 121.145 772.783 131.793C764.957 142.44 744.086 165.156 738.869 174.384C733.651 183.612 716.042 202.068 716.694 215.555C717.346 229.042 719.303 235.431 725.173 237.561C731.042 239.69 757.783 231.172 757.783 231.172C757.783 231.172 797.567 217.685 800.176 215.555C802.784 213.426 848.438 192.84 854.96 190C861.482 187.161 908.441 159.477 914.963 155.218C921.485 150.959 952.138 135.342 965.182 131.793C978.226 128.243 997.14 132.503 1007.57 139.601C1018.01 146.7 1023.23 148.829 1029.75 163.736C1036.27 178.643 1034.97 204.197 1029.75 215.555C1024.53 226.913 1008.23 241.11 998.444 242.53C988.661 243.949 965.834 241.82 956.051 242.53C946.268 243.239 910.397 248.208 895.397 251.758C880.396 255.307 858.221 260.276 851.699 262.405C845.177 264.535 823.002 269.504 811.915 273.763C800.828 278.022 762.348 287.25 754.522 292.929C746.695 298.608 740.825 302.157 746.695 314.225C752.565 326.292 768.87 328.422 772.783 329.841C776.696 331.261 817.133 341.909 821.698 343.329C826.263 344.748 871.917 356.816 877.787 357.526C883.657 358.235 911.049 362.495 924.093 362.495C937.137 362.495 950.181 360.365 961.921 357.526C973.66 354.686 1000.4 355.396 1007.57 357.526C1014.75 359.655 1022.58 361.785 1029.75 369.593C1036.92 377.401 1040.18 395.148 1040.84 402.956C1041.49 410.764 1040.18 421.412 1036.92 434.899C1033.66 448.387 1026.49 454.065 1019.97 456.905C1013.44 459.744 999.097 461.874 989.965 461.874C980.834 461.874 946.921 452.646 942.355 451.226C937.789 449.806 908.441 437.739 901.919 435.609C895.433 433.492 845.091 415.229 838.758 412.931L838.655 412.894C832.785 410.764 785.827 400.117 779.305 398.697C772.783 397.277 743.434 392.308 731.694 392.308C719.955 392.308 700.39 390.179 694.519 402.246C688.649 414.314 687.346 439.868 689.954 449.096C692.562 458.325 701.694 473.231 706.911 477.491C712.128 481.75 732.347 486.719 743.434 495.237C754.522 503.755 759.74 507.304 763.652 519.372C767.565 531.439 766.262 546.346 763.652 554.864C761.043 563.383 757.131 574.74 751.261 581.839C745.39 588.937 725.173 598.165 716.694 598.875C708.215 599.585 695.824 601.005 687.345 598.875C678.866 596.746 664.518 584.678 653.431 566.222C642.343 547.766 637.777 512.273 637.125 506.595C636.474 500.916 629.952 471.102 618.212 451.226C606.472 431.35 597.994 425.671 594.08 422.832C590.167 419.993 567.341 406.403 562.123 402.956C556.905 399.509 541.905 395.148 531.469 382.37C521.034 369.593 513.208 343.329 510.599 328.422C507.99 313.515 514.512 271.633 518.425 263.825C522.339 256.017 541.252 224.073 551.688 215.555C562.123 207.037 599.298 196.389 607.777 194.26C616.255 192.13 641.039 187.871 646.257 186.451Z" fill="#DE1C24"/>
<path d="M-145.681 50L621 223.187V382.407L-240 469L-145.681 50Z" fill="#DE1C24"/>
</svg>
