<svg width="123" height="91" viewBox="0 0 123 91" fill="none" xmlns="http://www.w3.org/2000/svg">
<path d="M123 57.5978C123 52.2091 117.783 51.0116 114.885 51.0116C111.986 51.0116 110.827 51.0116 109.668 52.2091C108.508 53.4066 106.769 55.8016 105.03 57.5978C103.291 59.394 101.552 61.1902 97.4945 62.9864C93.4368 64.7826 90.5384 64.1839 85.9011 64.1839C81.2637 64.1839 77.7857 58.7952 77.206 56.999C76.6264 55.2028 77.7857 46.8205 79.5247 42.0306C81.2637 37.2407 85.9011 27.0621 87.0604 24.0684C88.2198 21.0748 92.2775 12.6925 92.2775 9.69873C92.2775 6.70498 89.9588 3.71135 88.7994 2.51388C87.6401 1.3164 85.9011 -0.479811 82.4231 0.118927C78.945 0.717665 76.0467 3.71135 75.467 6.70504C75.467 6.70504 76.0467 13.2912 76.6264 18.6798C77.206 24.0684 75.467 33.0495 73.728 38.4382C71.989 43.8268 69.0906 51.0116 67.3516 52.2091C65.6126 53.4066 63.2939 52.8079 62.1346 52.2091C60.9753 51.6103 49.9615 31.2534 48.8022 29.4571C47.6428 27.6608 43.0055 8.50132 41.2665 6.70504C39.5274 4.90877 36.6291 2.51388 31.9917 3.71135C27.3544 4.90883 26.195 12.0936 27.3544 14.4886C28.5137 16.8836 40.1071 30.0558 43.0055 33.6483C45.9038 37.2407 52.2802 52.2092 51.7005 55.8015C51.1209 59.3939 47.6428 58.7952 45.9038 58.7952C44.1648 58.7952 13.4423 43.8269 8.22524 43.8268C3.0082 43.8267 0.689518 46.2217 0.109848 49.2154C-0.469823 52.2091 1.26919 56.999 4.74721 58.7952C8.22524 60.5915 21.5577 59.9927 25.6153 60.5914C29.673 61.1902 36.6291 63.5851 39.5274 66.5788C42.4258 69.5726 47.6428 84.541 52.8599 88.1334C58.0769 91.7258 66.772 91.7258 73.1483 89.3309C79.5247 86.9359 85.9011 74.9612 92.2775 73.1649C98.6538 71.3687 114.305 68.9738 117.783 66.5788C121.261 64.1839 123 62.9864 123 57.5978Z" fill="#329F37"/>
</svg>
