<svg width="65" height="91" viewBox="0 0 65 91" fill="none" xmlns="http://www.w3.org/2000/svg">
<path d="M0 34.361L4.07159 0.755185C5.81656 1.42646 7.65846 1.97188 9.59731 2.39142C11.5362 2.72706 13.5235 2.89488 15.5593 2.89488H53.3669C54.5302 2.89488 55.4512 2.76902 56.1298 2.51729C56.8083 2.18165 57.39 1.84601 57.8747 1.51037C58.4564 1.09082 59.038 0.755182 59.6197 0.503451C60.2013 0.167817 61.0254 0 62.0917 0C62.7703 0 63.4004 0.251728 63.9821 0.755185C64.6607 1.17473 65 1.97187 65 3.14661C65 4.06961 64.6607 5.11848 63.9821 6.29322C63.4004 7.38404 62.5764 8.81051 61.5101 10.5726C60.0559 13.006 58.1655 16.3624 55.8389 20.6418C53.5123 24.8372 50.604 30.5431 47.1141 37.7593C44.5936 43.0456 42.9456 49.1291 42.17 56.0097C41.3945 62.8903 41.0067 70.2324 41.0067 78.036C41.0067 80.1337 40.6674 82.0217 39.9888 83.6999C39.3102 85.2942 38.3893 86.6367 37.226 87.7275C36.1596 88.8184 34.9478 89.6155 33.5906 90.1189C32.2334 90.7063 30.8762 91 29.519 91C28.4526 91 27.1924 90.8322 25.7383 90.4965C24.3811 90.2448 23.0723 89.6994 21.8121 88.8603C20.5518 88.0212 19.4855 86.8465 18.613 85.3361C17.7405 83.7418 17.3043 81.6441 17.3043 79.0429C17.3043 75.6865 17.9344 72.1623 19.1946 68.4703C20.4549 64.6943 22.006 61.0443 23.8479 57.5201C25.6898 53.9119 27.5802 50.5556 29.519 47.4509C31.4579 44.2623 33.1544 41.6192 34.6085 39.5214C37.6137 35.0742 40.1827 31.1724 42.3154 27.816C44.5451 24.3757 46.6294 21.1033 48.5682 17.9986H18.4676C17.5951 17.9986 16.5772 18.0825 15.4139 18.2503C14.3475 18.4182 13.2811 19.0475 12.2148 20.1383C11.1484 21.1452 10.1305 22.7815 9.16107 25.047C8.28859 27.2287 7.65846 30.3333 7.27069 34.361H0Z" fill="#CB1515"/>
</svg>
