<svg width="1260" height="527" viewBox="0 0 1260 527" fill="none" xmlns="http://www.w3.org/2000/svg">
<g filter="url(#filter0_d_1_14)">
<path d="M755.428 155.171C750.962 157.748 748.251 159.358 747.294 160.003C746.337 160.647 745.221 161.291 743.945 161.935L738.203 475.995H731.505L671.22 235.86C671.22 251.966 671.22 266.3 671.22 278.862C671.539 291.425 671.698 303.021 671.698 313.65C672.017 324.28 672.177 334.427 672.177 344.09C672.496 353.753 672.815 363.578 673.134 373.563L676.004 448.937V459.567C677.599 460.534 680.311 461.661 684.138 462.949C688.285 464.238 693.069 465.687 698.492 467.298V472.613C693.388 472.291 689.242 472.13 686.052 472.13C683.181 471.807 680.789 471.646 678.875 471.646C676.961 471.646 675.207 471.646 673.612 471.646C672.336 471.646 670.742 471.646 668.828 471.646C665.638 471.646 662.448 471.646 659.259 471.646C656.069 471.646 650.168 471.969 641.556 472.613V467.781C644.746 466.171 647.138 464.882 648.733 463.916C650.647 462.627 652.72 461.178 654.953 459.567C654.953 457.312 654.953 453.125 654.953 447.005C655.272 440.563 655.431 433.315 655.431 425.262C655.75 416.887 655.909 408.19 655.909 399.171C656.228 390.152 656.388 381.777 656.388 374.046C656.707 355.686 656.866 340.225 656.866 327.662C657.185 314.778 657.345 303.826 657.345 294.807C657.345 285.788 657.345 278.218 657.345 272.098C657.664 265.978 657.823 260.502 657.823 255.67C657.823 250.516 657.823 245.523 657.823 240.692C657.823 235.538 657.823 229.579 657.823 222.815C657.823 212.507 657.823 203.005 657.823 194.308C657.823 185.288 657.664 174.498 657.345 161.935C654.793 160.325 652.879 159.197 651.603 158.553C650.328 157.909 647.935 156.782 644.427 155.171V150.339C648.254 150.661 651.284 150.983 653.517 151.306C655.75 151.306 657.504 151.306 658.78 151.306C660.375 151.306 661.651 151.306 662.608 151.306C663.565 151.306 664.681 151.306 665.957 151.306C668.19 151.306 670.423 151.306 672.655 151.306C675.207 151.306 680.151 150.983 687.487 150.339L727.199 325.246C727.199 307.53 727.039 291.747 726.72 277.896C726.401 263.723 726.082 250.516 725.764 238.276C725.445 226.036 724.966 213.956 724.328 202.038C724.009 190.12 723.371 177.236 722.414 163.385C718.268 161.13 714.919 159.681 712.367 159.036C710.134 158.07 706.785 156.943 702.319 155.654V150.339C707.104 150.661 710.931 150.983 713.802 151.306C716.992 151.306 719.544 151.306 721.457 151.306C723.371 151.306 724.966 151.306 726.242 151.306C727.518 151.306 728.953 151.306 730.548 151.306C733.738 151.306 737.087 151.306 740.596 151.306C744.104 150.983 749.048 150.661 755.428 150.339V155.171Z" fill="#F01130"/>
<path d="M617.925 461.017C620.158 462.627 622.231 463.916 624.145 464.882C626.059 465.848 628.451 466.654 631.322 467.298V472.613C626.218 472.291 622.072 472.13 618.882 472.13C616.011 471.807 613.46 471.646 611.227 471.646C608.994 471.646 607.08 471.646 605.485 471.646C604.209 471.646 602.615 471.646 600.701 471.646C597.192 471.646 593.683 471.646 590.175 471.646C586.985 471.646 580.287 471.969 570.08 472.613V467.298C574.545 466.009 577.576 465.043 579.17 464.399C580.765 463.755 582.52 462.627 584.433 461.017V161.935C582.839 160.325 581.084 159.197 579.17 158.553C577.257 157.587 574.545 156.459 571.037 155.171V150.339C576.14 150.661 580.287 150.983 583.477 151.306C586.985 151.306 589.696 151.306 591.61 151.306C593.843 151.306 595.597 151.306 596.873 151.306C598.468 151.306 600.063 151.306 601.658 151.306C604.209 151.306 607.24 151.306 610.748 151.306C614.257 151.306 621.115 150.983 631.322 150.339V155.171C628.451 156.137 626.059 157.104 624.145 158.07C622.55 159.036 620.477 160.325 617.925 161.935V461.017Z" fill="#F01130"/>
<path d="M490.006 394.823C491.601 408.029 492.877 419.303 493.834 428.644C495.109 437.664 496.545 446.683 498.14 455.702C501.329 459.889 505.316 461.983 510.101 461.983C516.161 461.983 520.786 458.44 523.976 451.353C527.485 443.945 529.239 433.959 529.239 421.397C529.239 416.243 528.92 411.411 528.282 406.902C527.963 402.07 527.006 397.077 525.411 391.924C524.136 386.448 522.222 380.328 519.67 373.563C517.437 366.477 514.248 357.78 510.101 347.472C503.722 331.366 498.459 317.677 494.312 306.403C490.165 295.129 486.976 284.982 484.743 275.963C482.51 266.944 480.915 258.408 479.958 250.355C479.321 241.98 479.002 232.8 479.002 222.815C479.002 199.945 483.308 181.745 491.92 168.216C500.532 154.688 512.334 147.923 527.325 147.923C532.429 147.923 537.054 148.729 541.2 150.339C545.666 151.628 551.248 154.205 557.946 158.07C556.67 165.479 555.713 171.599 555.075 176.43C554.438 181.262 553.8 185.933 553.162 190.442C552.524 194.952 551.886 199.945 551.248 205.42C550.61 210.574 549.813 217.178 548.856 225.23H544.071L543.114 219.432C542.795 215.567 542.476 211.702 542.157 207.836C541.838 203.971 541.36 200.267 540.722 196.723C540.722 195.757 540.403 193.502 539.765 189.959C539.446 186.416 538.649 180.779 537.373 173.048C533.226 168.861 529.239 166.767 525.411 166.767C519.989 166.767 515.842 170.632 512.972 178.363C510.101 186.094 508.666 196.723 508.666 210.252C508.666 216.372 508.985 222.17 509.623 227.646C510.26 233.122 511.217 238.92 512.493 245.04C514.088 250.838 516.161 257.281 518.713 264.367C521.265 271.454 524.455 279.506 528.282 288.525C534.343 303.021 539.287 315.583 543.114 326.213C546.942 336.52 549.972 346.023 552.205 354.72C554.438 363.094 555.873 371.147 556.511 378.878C557.468 386.287 557.946 394.5 557.946 403.52C557.946 424.779 553.64 442.012 545.028 455.219C536.416 468.425 524.933 475.029 510.579 475.029C501.648 475.029 491.601 472.291 480.437 466.815C480.756 466.815 479.958 466.493 478.045 465.848C479.002 458.118 479.799 451.514 480.437 446.038C481.075 440.563 481.553 435.409 481.872 430.577C482.51 425.745 482.989 420.592 483.308 415.116C483.627 409.64 484.105 402.875 484.743 394.823H490.006Z" fill="#F01130"/>
<path d="M425.501 397.722C423.587 397.077 421.833 396.755 420.238 396.755C418.643 396.755 416.889 396.755 414.975 396.755C412.423 396.755 410.509 396.755 409.234 396.755C407.958 396.755 406.203 396.916 403.971 397.238L398.708 459.567C400.302 461.178 401.578 462.305 402.535 462.949C403.492 463.594 404.449 464.238 405.406 464.882L409.712 467.781V472.613C406.203 472.291 403.333 472.13 401.1 472.13C398.867 471.807 396.953 471.646 395.358 471.646C394.083 471.646 392.807 471.646 391.531 471.646C390.255 471.646 388.979 471.646 387.703 471.646C385.47 471.646 383.078 471.646 380.526 471.646C378.294 471.646 373.509 471.969 366.173 472.613V467.781C368.725 466.171 370.479 465.043 371.436 464.399C372.712 463.755 374.466 462.627 376.699 461.017L409.712 150.339H436.505L465.691 461.017C467.924 462.627 469.519 463.916 470.475 464.882C471.432 465.526 473.187 466.493 475.738 467.781V472.613C470.954 472.291 467.126 472.13 464.256 472.13C461.385 471.807 458.993 471.646 457.079 471.646C455.165 471.646 453.411 471.646 451.816 471.646C450.54 471.646 449.105 471.646 447.51 471.646C445.915 471.646 444.32 471.646 442.725 471.646C441.449 471.646 439.854 471.646 437.941 471.646C436.346 471.646 434.113 471.807 431.242 472.13C428.372 472.13 424.704 472.291 420.238 472.613V467.781C422.79 466.171 424.544 465.043 425.501 464.399C426.458 463.755 427.893 462.627 429.807 461.017L425.501 397.722ZM405.406 380.811C407.001 381.133 408.596 381.455 410.19 381.777C412.104 381.777 414.178 381.777 416.41 381.777C418.005 381.777 419.281 381.777 420.238 381.777C421.514 381.777 422.949 381.455 424.544 380.811L415.932 256.153L405.406 380.811Z" fill="#F01130"/>
<path d="M338.962 214.936H326.373C315.973 144.714 261.785 109.88 212.522 109.88C161.618 109.88 79.5145 141.949 79.5145 289.581C79.5145 362.015 94.8405 405.696 127.682 435.001C147.387 452.695 175.849 467.071 211.428 467.071C231.133 467.071 254.122 461.542 273.826 448.824C306.668 427.813 319.805 395.743 329.657 357.591L332.941 344.874H342.794V468.177H335.678L322.541 439.425C299.552 457.671 259.048 482 196.102 482C84.988 482 10 401.825 10 289.028C10 178.443 94.8405 94.9506 204.859 94.9506C233.869 94.9506 273.826 101.033 317.615 130.338L326.373 103.797H335.131L338.962 214.936Z" fill="#F01130"/>
<path d="M1190 289.028C1190 403.484 1093.86 482 984.611 482C879.184 482 786.868 400.167 786.868 289.581C786.868 175.678 886.286 94.9506 993.897 94.9506C1100.96 94.9506 1190 177.89 1190 289.028ZM1120.63 291.24C1120.63 153.561 1049.07 109.88 990.073 109.88C922.884 109.88 856.242 162.961 856.242 289.581C856.242 417.86 921.246 467.071 987.888 467.071C1049.07 467.071 1120.63 426.707 1120.63 291.24Z" fill="#F01130"/>
<path d="M748.226 80.2507C748.813 82.6712 749.282 84.7374 749.634 86.4495C750.104 88.1025 750.632 89.7555 751.218 91.4085C752.392 92.1759 753.859 92.5596 755.619 92.5596C757.848 92.5596 759.55 91.9103 760.723 90.6115C762.014 89.2537 762.66 87.4236 762.66 85.1212C762.66 84.1766 762.542 83.2911 762.308 82.4646C762.19 81.579 761.838 80.664 761.251 79.7194C760.782 78.7158 760.078 77.5941 759.139 76.3544C758.318 75.0556 757.144 73.4617 755.619 71.5725C753.272 68.6207 751.336 66.1117 749.81 64.0455C748.285 61.9792 747.111 60.1196 746.29 58.4666C745.469 56.8136 744.882 55.2492 744.53 53.7733C744.295 52.2384 744.178 50.5559 744.178 48.7258C744.178 44.5342 745.762 41.1987 748.93 38.7192C752.099 36.2397 756.44 35 761.956 35C763.833 35 765.535 35.1476 767.06 35.4428C768.703 35.6789 770.756 36.1512 773.221 36.8596C772.751 38.2174 772.399 39.3391 772.165 40.2246C771.93 41.1102 771.695 41.9662 771.461 42.7927C771.226 43.6192 770.991 44.5342 770.756 45.5378C770.522 46.4824 770.228 47.6926 769.876 49.1685H768.116L767.764 48.1059C767.647 47.3975 767.529 46.689 767.412 45.9806C767.295 45.2722 767.119 44.5933 766.884 43.9439C766.884 43.7668 766.767 43.3535 766.532 42.7041C766.415 42.0547 766.121 41.0216 765.652 39.6048C764.126 38.8373 762.66 38.4536 761.251 38.4536C759.257 38.4536 757.731 39.162 756.675 40.5789C755.619 41.9957 755.091 43.9439 755.091 46.4234C755.091 47.5451 755.208 48.6077 755.443 49.6113C755.678 50.6149 756.03 51.6775 756.499 52.7992C757.086 53.8619 757.848 55.0426 758.787 56.3413C759.726 57.6401 760.899 59.116 762.308 60.769C764.537 63.4256 766.356 65.728 767.764 67.6762C769.172 69.5653 770.287 71.3069 771.108 72.9008C771.93 74.4357 772.458 75.9116 772.693 77.3285C773.045 78.6863 773.221 80.1917 773.221 81.8447C773.221 85.741 771.637 88.8994 768.468 91.3199C765.3 93.7404 761.075 94.9506 755.795 94.9506C752.509 94.9506 748.813 94.4488 744.706 93.4452C744.823 93.4452 744.53 93.3861 743.826 93.2681C744.178 91.8512 744.471 90.641 744.706 89.6374C744.94 88.6338 745.117 87.6892 745.234 86.8037C745.469 85.9181 745.645 84.9736 745.762 83.97C745.879 82.9664 746.055 81.7266 746.29 80.2507H748.226Z" fill="#F01130"/>
<path d="M725.053 80.2117C724.337 80.094 723.682 80.0351 723.086 80.0351C722.49 80.0351 721.834 80.0351 721.119 80.0351C720.166 80.0351 719.45 80.0351 718.974 80.0351C718.497 80.0351 717.841 80.0645 717.007 80.1234L715.04 91.5146C715.636 91.809 716.113 92.015 716.471 92.1327C716.828 92.2505 717.186 92.3682 717.543 92.486L719.153 93.0158V93.8988C717.841 93.84 716.769 93.8105 715.934 93.8105C715.1 93.7517 714.385 93.7222 713.789 93.7222C713.312 93.7222 712.835 93.7222 712.358 93.7222C711.882 93.7222 711.405 93.7222 710.928 93.7222C710.094 93.7222 709.2 93.7222 708.246 93.7222C707.412 93.7222 705.624 93.7811 702.883 93.8988V93.0158C703.836 92.7214 704.492 92.5154 704.849 92.3977C705.326 92.2799 705.982 92.0739 706.816 91.7795L719.153 35H729.165L740.071 91.7795C740.905 92.0739 741.501 92.3094 741.859 92.486C742.216 92.6037 742.872 92.7803 743.826 93.0158V93.8988C742.038 93.84 740.607 93.8105 739.535 93.8105C738.462 93.7517 737.568 93.7222 736.853 93.7222C736.138 93.7222 735.482 93.7222 734.886 93.7222C734.409 93.7222 733.873 93.7222 733.277 93.7222C732.681 93.7222 732.085 93.7222 731.489 93.7222C731.012 93.7222 730.416 93.7222 729.701 93.7222C729.105 93.7222 728.271 93.7517 727.198 93.8105C726.125 93.8105 724.755 93.84 723.086 93.8988V93.0158C724.039 92.7214 724.695 92.5154 725.053 92.3977C725.41 92.2799 725.947 92.0739 726.662 91.7795L725.053 80.2117ZM717.543 77.121C718.139 77.1799 718.735 77.2388 719.331 77.2977C720.046 77.2977 720.821 77.2977 721.656 77.2977C722.252 77.2977 722.728 77.2977 723.086 77.2977C723.563 77.2977 724.099 77.2388 724.695 77.121L721.477 54.3386L717.543 77.121Z" fill="#F01130"/>
<path d="M698.15 37.1253C697.916 39.0735 697.74 40.6969 697.623 41.9957C697.506 43.2355 697.388 44.4162 697.271 45.5378C697.154 46.6595 697.037 47.8107 696.919 48.9914C696.919 50.1721 696.919 51.6775 696.919 53.5076H694.985C693.461 49.4342 692.347 46.3348 691.644 44.2095C690.94 42.0843 690.53 40.9331 690.413 40.756C689.944 39.9295 689.475 39.3686 689.006 39.0735C688.537 38.7192 687.892 38.5421 687.071 38.5421C684.258 38.5421 682.089 40.9626 680.565 45.8035C679.04 50.5854 678.278 57.4335 678.278 66.3479C678.278 70.8346 678.454 74.6719 678.806 77.8598C679.158 81.0477 679.685 83.7043 680.389 85.8296C681.209 87.9549 682.206 89.5784 683.378 90.7C684.668 91.8217 686.192 92.5006 687.951 92.7368L688.302 76.2658C688.302 76.0887 688.302 75.6755 688.302 75.0261C688.302 74.3767 688.244 73.6978 688.126 72.9894C687.189 72.6942 686.309 72.4876 685.489 72.3695C684.785 72.1924 683.789 71.9858 682.499 71.7496V70.7755C685.43 70.8936 687.364 70.9822 688.302 71.0412C689.357 71.0412 690.354 71.0412 691.292 71.0412C692.23 71.0412 693.285 71.0412 694.457 71.0412C695.63 70.9822 697.388 70.8936 699.733 70.7755C699.616 73.4321 699.499 75.5574 699.381 77.1514C699.381 78.6863 699.323 79.9851 699.206 81.0477C699.206 82.1104 699.206 83.114 699.206 84.0585C699.206 84.9441 699.206 86.1248 699.206 87.6007V93.091C697.095 93.7404 695.161 94.2126 693.402 94.5078C691.761 94.803 689.944 94.9506 687.951 94.9506C682.44 94.9506 677.692 93.3566 673.706 90.1687C670.658 87.6892 668.43 84.5013 667.023 80.6049C665.734 76.6496 665.089 71.6611 665.089 65.6394C665.089 59.0275 665.851 53.6847 667.375 49.6113C668.899 45.4788 671.479 42.0252 675.113 39.2506C676.754 37.8927 678.63 36.8596 680.74 36.1512C682.968 35.3837 685.254 35 687.599 35C690.999 35 694.34 35.6494 697.623 36.9482L698.15 37.1253Z" fill="#F01130"/>
<path d="M658.79 69.89C658.79 75.0851 657.87 79.6899 656.03 83.7043C654.305 87.7187 651.89 90.7295 648.785 92.7368C646.6 94.2126 643.725 94.9506 640.159 94.9506C634.409 94.9506 629.924 92.7368 626.704 88.3091C623.599 83.8814 622.046 77.6827 622.046 69.7129V61.3889C622.046 57.3154 622.449 53.6552 623.254 50.4083C624.174 47.1613 625.439 44.3867 627.049 42.0843C628.774 39.7819 630.787 38.0403 633.087 36.8596C635.387 35.6199 638.032 35 641.022 35C646.657 35 651.027 37.3024 654.132 41.9072C657.237 46.5119 658.79 53.0354 658.79 61.4774V69.89ZM634.639 69.8014C634.639 78.1255 635.099 84.088 636.019 87.6892C636.939 91.2313 638.492 93.0024 640.677 93.0024C642.057 93.0024 643.092 92.353 643.782 91.0542C644.127 90.2277 644.472 89.1061 644.817 87.6892C645.162 86.2724 645.45 84.6489 645.68 82.8188C645.91 80.9296 646.082 78.8929 646.197 76.7086C646.312 74.5243 646.37 72.2514 646.37 69.89V61.4774C646.37 53.4486 645.91 47.6041 644.99 43.9439C644.07 40.2837 642.689 38.4536 640.849 38.4536C638.549 38.4536 636.939 40.2542 636.019 43.8553C635.099 47.4565 634.639 53.3305 634.639 61.4774V69.8014Z" fill="#F01130"/>
<path d="M611.282 80.6682C612.204 83.3719 612.895 85.4878 613.355 87.0159C613.931 88.5441 614.449 89.749 614.91 90.6306C615.371 91.4535 615.774 92.1 616.119 92.5702C616.58 92.9816 617.156 93.3931 617.847 93.8045V94.9506C615.428 94.4216 613.298 93.7457 611.455 92.9228C609.727 92.0412 608.115 90.8657 606.618 89.3963C605.236 87.927 603.911 86.1049 602.644 83.9303C601.493 81.6968 600.341 78.9932 599.189 75.8193L594.698 64.0055L595.389 63.8292C597.807 63.359 599.535 62.0953 600.571 60.0382C601.608 57.9811 602.126 54.8072 602.126 50.5166C602.126 46.226 601.608 43.111 600.571 41.1714C599.65 39.173 598.21 38.1739 596.253 38.1739C594.295 38.1739 593.316 38.7616 593.316 39.9371V40.2016L593.661 91.4241C594.928 91.7767 596.022 92.0412 596.944 92.2175C597.865 92.3351 599.65 92.5408 602.299 92.8347V93.8045C599.996 93.7457 598.153 93.7163 596.771 93.7163C595.504 93.6575 594.41 93.6282 593.488 93.6282C592.567 93.6282 591.761 93.6282 591.07 93.6282C590.494 93.6282 589.803 93.6282 588.997 93.6282C587.615 93.6282 586.233 93.6282 584.851 93.6282C583.469 93.6282 580.935 93.6869 577.249 93.8045V92.8347C578.516 92.6584 579.323 92.5114 579.668 92.3939C580.014 92.2763 580.647 92.0412 581.568 91.6886C581.799 89.749 581.914 88.2502 581.914 87.1923C581.914 86.0756 581.914 84.8413 581.914 83.4894V78.6405C581.799 75.9956 581.741 73.2626 581.741 70.4414C581.741 67.6202 581.741 64.5345 581.741 61.1843C581.741 57.4815 581.741 54.5721 581.741 52.4562C581.741 50.2815 581.741 48.4301 581.741 46.902C581.741 45.315 581.683 43.8457 581.568 42.4938C581.568 41.0832 581.511 39.2906 581.396 37.1159C580.474 36.822 579.783 36.6163 579.322 36.4988C578.862 36.3812 578.056 36.1755 576.904 35.8816V35C578.516 35.0588 579.841 35.1176 580.877 35.1763C581.914 35.1763 582.778 35.1763 583.469 35.1763C584.16 35.1763 584.736 35.1763 585.196 35.1763C585.657 35.1763 586.175 35.1763 586.751 35.1763C587.672 35.1763 588.479 35.1763 589.17 35.1763C589.861 35.1763 590.609 35.1469 591.415 35.0882C592.452 35.0294 593.373 35 594.179 35C595.101 35 595.792 35 596.253 35C602.126 35 606.618 36.3224 609.727 38.9673C612.952 41.5534 614.565 45.2269 614.565 49.9876C614.565 52.6913 613.874 54.9541 612.492 56.7762C611.11 58.5982 608.864 60.2733 605.754 61.8014L611.282 80.6682Z" fill="#F01130"/>
<path d="M540.5 35C543.108 35.0589 545.206 35.1177 546.793 35.1766C548.381 35.1766 549.685 35.1766 550.705 35.1766C551.839 35.1766 552.746 35.1766 553.427 35.1766C554.107 35.1766 554.901 35.1766 555.808 35.1766C556.602 35.1766 557.339 35.1766 558.019 35.1766C558.813 35.1766 559.72 35.1766 560.74 35.1766C561.761 35.1766 563.008 35.1766 564.482 35.1766C566.069 35.1177 568.11 35.0589 570.605 35C570.265 36.4129 569.981 38.0318 569.755 39.8567C569.641 41.6817 569.584 43.4478 569.584 45.155V46.7444V47.6275H567.714C567.033 45.5082 566.466 43.8598 566.013 42.6825C565.559 41.4462 564.992 40.3277 564.312 39.3269C563.518 39.0326 562.838 38.8559 562.271 38.7971C561.817 38.7382 561.307 38.7088 560.74 38.7088C560.06 38.7088 559.436 38.7382 558.869 38.7971C558.416 38.8559 557.792 39.0326 556.998 39.3269V63.8754C558.586 63.7577 559.833 63.64 560.74 63.5222C561.761 63.4045 562.838 63.2573 563.972 63.0807C564.425 62.7275 564.992 61.815 565.673 60.3433C566.466 58.8127 567.147 57.3409 567.714 55.9281H569.584C569.358 57.3409 569.188 58.5183 569.074 59.4602C569.074 60.3433 569.018 61.0791 568.904 61.6678C568.904 62.2565 568.904 62.7569 568.904 63.169C568.904 63.5811 568.904 64.0226 568.904 64.4936C568.904 64.9645 568.904 65.406 568.904 65.8181C568.904 66.2302 568.904 66.7306 568.904 67.3193C569.018 67.908 569.074 68.6733 569.074 69.6152C569.188 70.4982 569.358 71.6756 569.584 73.1474H567.714C567.487 72.7353 567.203 72.2055 566.863 71.5579C566.523 70.8515 566.126 70.1745 565.673 69.5269C565.332 68.8205 564.992 68.2023 564.652 67.6725C564.312 67.0838 564.085 66.6423 563.972 66.3479C562.724 66.1713 561.591 66.0242 560.57 65.9064C559.663 65.7298 558.472 65.5238 556.998 65.2883V91.5146C558.246 91.809 559.606 92.0739 561.08 92.3094C562.668 92.486 564.765 92.692 567.373 92.9275V93.8988C564.992 93.84 563.065 93.8105 561.591 93.8105C560.117 93.7517 558.869 93.7222 557.849 93.7222C556.942 93.7222 556.091 93.7222 555.298 93.7222C554.617 93.7222 553.823 93.7222 552.916 93.7222C551.329 93.7222 549.741 93.7517 548.154 93.8105C546.68 93.8105 544.015 93.84 540.16 93.8988V92.9275C541.748 92.692 542.825 92.486 543.392 92.3094C544.072 92.1327 544.696 91.8973 545.263 91.6029V37.1193C544.469 36.8838 543.732 36.7072 543.052 36.5895C542.485 36.4129 541.634 36.1774 540.5 35.883V35Z" fill="#F01130"/>
<path d="M469.866 80.2507C470.432 82.6712 470.884 84.7374 471.224 86.4495C471.677 88.1025 472.186 89.7555 472.752 91.4085C473.883 92.1759 475.298 92.5596 476.995 92.5596C479.145 92.5596 480.786 91.9103 481.917 90.6115C483.162 89.2537 483.784 87.4236 483.784 85.1212C483.784 84.1766 483.671 83.2911 483.445 82.4646C483.331 81.579 482.992 80.664 482.426 79.7194C481.974 78.7158 481.295 77.5941 480.389 76.3544C479.597 75.0556 478.466 73.4617 476.995 71.5725C474.732 68.6207 472.865 66.1117 471.394 64.0455C469.923 61.9792 468.791 60.1196 467.999 58.4666C467.207 56.8136 466.641 55.2492 466.302 53.7733C466.075 52.2384 465.962 50.5559 465.962 48.7258C465.962 44.5342 467.49 41.1987 470.545 38.7192C473.6 36.2397 477.787 35 483.105 35C484.916 35 486.556 35.1476 488.027 35.4428C489.612 35.6789 491.592 36.1512 493.968 36.8596C493.515 38.2174 493.176 39.3391 492.95 40.2246C492.723 41.1102 492.497 41.9662 492.271 42.7927C492.044 43.6192 491.818 44.5342 491.592 45.5378C491.365 46.4824 491.083 47.6926 490.743 49.1685H489.046L488.706 48.1059C488.593 47.3975 488.48 46.689 488.367 45.9806C488.254 45.2722 488.084 44.5933 487.858 43.9439C487.858 43.7668 487.745 43.3535 487.518 42.7041C487.405 42.0547 487.122 41.0216 486.67 39.6048C485.199 38.8373 483.784 38.4536 482.426 38.4536C480.503 38.4536 479.032 39.162 478.013 40.5789C476.995 41.9957 476.486 43.9439 476.486 46.4234C476.486 47.5451 476.599 48.6077 476.825 49.6113C477.051 50.6149 477.391 51.6775 477.843 52.7992C478.409 53.8619 479.145 55.0426 480.05 56.3413C480.955 57.6401 482.087 59.116 483.445 60.769C485.595 63.4256 487.348 65.728 488.706 67.6762C490.064 69.5653 491.139 71.3069 491.931 72.9008C492.723 74.4357 493.233 75.9116 493.459 77.3285C493.798 78.6863 493.968 80.1917 493.968 81.8447C493.968 85.741 492.44 88.8994 489.385 91.3199C486.33 93.7404 482.257 94.9506 477.165 94.9506C473.996 94.9506 470.432 94.4488 466.471 93.4452C466.585 93.4452 466.302 93.3861 465.623 93.2681C465.962 91.8512 466.245 90.641 466.471 89.6374C466.698 88.6338 466.867 87.6892 466.981 86.8037C467.207 85.9181 467.377 84.9736 467.49 83.97C467.603 82.9664 467.773 81.7266 467.999 80.2507H469.866Z" fill="#F01130"/>
<path d="M446.281 80.2117C445.584 80.094 444.946 80.0351 444.365 80.0351C443.784 80.0351 443.146 80.0351 442.449 80.0351C441.52 80.0351 440.823 80.0351 440.358 80.0351C439.894 80.0351 439.255 80.0645 438.442 80.1234L436.526 91.5146C437.106 91.809 437.571 92.015 437.919 92.1327C438.268 92.2505 438.616 92.3682 438.965 92.486L440.532 93.0158V93.8988C439.255 93.84 438.21 93.8105 437.397 93.8105C436.584 93.7517 435.887 93.7222 435.306 93.7222C434.842 93.7222 434.377 93.7222 433.913 93.7222C433.448 93.7222 432.984 93.7222 432.519 93.7222C431.706 93.7222 430.835 93.7222 429.906 93.7222C429.093 93.7222 427.351 93.7811 424.68 93.8988V93.0158C425.609 92.7214 426.248 92.5154 426.596 92.3977C427.061 92.2799 427.699 92.0739 428.512 91.7795L440.532 35H450.288L460.915 91.7795C461.728 92.0739 462.308 92.3094 462.657 92.486C463.005 92.6037 463.644 92.7803 464.573 93.0158V93.8988C462.831 93.84 461.437 93.8105 460.392 93.8105C459.347 93.7517 458.476 93.7222 457.779 93.7222C457.082 93.7222 456.443 93.7222 455.863 93.7222C455.398 93.7222 454.875 93.7222 454.295 93.7222C453.714 93.7222 453.133 93.7222 452.553 93.7222C452.088 93.7222 451.507 93.7222 450.811 93.7222C450.23 93.7222 449.417 93.7517 448.372 93.8105C447.327 93.8105 445.991 93.84 444.365 93.8988V93.0158C445.294 92.7214 445.933 92.5154 446.281 92.3977C446.63 92.2799 447.152 92.0739 447.849 91.7795L446.281 80.2117ZM438.965 77.121C439.545 77.1799 440.126 77.2388 440.707 77.2977C441.403 77.2977 442.158 77.2977 442.971 77.2977C443.552 77.2977 444.017 77.2977 444.365 77.2977C444.83 77.2977 445.352 77.2388 445.933 77.121L442.797 54.3386L438.965 77.121Z" fill="#F01130"/>
<path d="M419.973 93.8988C417.55 93.84 415.589 93.8105 414.089 93.8105C412.59 93.7517 411.32 93.7222 410.282 93.7222C409.244 93.6633 408.379 93.6339 407.687 93.6339C406.994 93.6339 406.244 93.6339 405.437 93.6339C404.629 93.6339 403.879 93.6339 403.187 93.6339C402.495 93.6339 401.572 93.6633 400.418 93.7222C399.38 93.7222 398.054 93.7517 396.438 93.8105C394.823 93.8105 392.689 93.84 390.036 93.8988V92.9275C391.535 92.7509 392.574 92.6037 393.151 92.486C393.727 92.3094 394.304 92.0739 394.881 91.7795C394.996 89.8368 395.054 88.1002 395.054 86.5696C395.169 85.039 395.227 83.5672 395.227 82.1544C395.227 80.7415 395.227 79.3581 395.227 78.0041C395.227 76.5912 395.227 75.0901 395.227 73.5006V56.7228C395.227 52.8374 395.227 49.8351 395.227 47.7158C395.227 45.5376 395.227 43.8598 395.227 42.6825C395.227 41.4462 395.169 40.5043 395.054 39.8567C395.054 39.1503 394.996 38.2967 394.881 37.2959C394.304 37.0016 393.727 36.7955 393.151 36.6778C392.574 36.5012 391.824 36.2951 390.901 36.0597L390.036 35.883V35C392.112 35.0589 393.843 35.1177 395.227 35.1766C396.611 35.1766 397.707 35.1766 398.515 35.1766C399.438 35.1766 400.188 35.1766 400.765 35.1766C401.341 35.1766 401.976 35.1766 402.668 35.1766C403.36 35.1766 403.995 35.1766 404.572 35.1766C405.264 35.1766 406.014 35.1766 406.821 35.1766C407.744 35.1766 408.84 35.1766 410.109 35.1766C411.494 35.1177 413.282 35.0589 415.474 35V36.0597C413.859 36.2363 412.301 36.4717 410.801 36.7661C409.417 37.0016 408.436 37.237 407.86 37.4725C407.744 40.6515 407.687 43.7421 407.687 46.7444C407.687 49.6879 407.687 52.6314 407.687 55.5749C407.687 58.3417 407.629 60.4904 407.513 62.0211C407.513 63.5517 407.513 64.8173 407.513 65.8181C407.513 66.8189 407.513 67.7314 407.513 68.5556C407.513 69.3209 407.513 70.3216 407.513 71.5579C407.513 76.444 407.513 80.4472 407.513 83.5672C407.513 86.6285 407.629 89.2187 407.86 91.338C408.436 91.3969 408.898 91.4263 409.244 91.4263C409.59 91.4263 409.936 91.4263 410.282 91.4263C411.09 91.4263 412.013 91.2791 413.051 90.9848C413.628 90.2784 414.205 89.4248 414.781 88.424C415.474 87.3643 416.108 86.2458 416.685 85.0684C417.262 83.891 417.781 82.6842 418.242 81.4479C418.819 80.2117 419.281 79.0343 419.627 77.9158H421.53L419.973 93.8988Z" fill="#F01130"/>
</g>
<path d="M992.028 193.816C997.371 219.013 1014.79 248.139 1044.28 281.196L1050.21 298.962C1050.32 300.254 1050.37 301.546 1050.37 302.839C1050.37 319.205 1039.47 329.381 1017.67 333.365C1007.52 329.058 1000.58 320.444 996.837 307.522L1000.84 348.547L1008.06 370.513C997.371 362.976 986.686 362.976 976 370.513L983.213 350.647L987.22 307.522C983.48 320.444 976.534 329.058 966.382 333.365C944.69 329.381 933.844 318.182 933.844 299.77C933.844 298.262 933.897 296.701 934.004 295.086L939.934 281.196C969.321 248.139 986.686 219.013 992.028 193.816Z" fill="#F01130"/>
<defs>
<filter id="filter0_d_1_14" x="0" y="0" width="1260" height="527" filterUnits="userSpaceOnUse" color-interpolation-filters="sRGB">
<feFlood flood-opacity="0" result="BackgroundImageFix"/>
<feColorMatrix in="SourceAlpha" type="matrix" values="0 0 0 0 0 0 0 0 0 0 0 0 0 0 0 0 0 0 127 0" result="hardAlpha"/>
<feOffset dx="30" dy="5"/>
<feGaussianBlur stdDeviation="20"/>
<feComposite in2="hardAlpha" operator="out"/>
<feColorMatrix type="matrix" values="0 0 0 0 0 0 0 0 0 0 0 0 0 0 0 0 0 0 1 0"/>
<feBlend mode="normal" in2="BackgroundImageFix" result="effect1_dropShadow_1_14"/>
<feBlend mode="normal" in="SourceGraphic" in2="effect1_dropShadow_1_14" result="shape"/>
</filter>
</defs>
</svg>
