<svg width="78" height="100" viewBox="0 0 78 100" fill="none" xmlns="http://www.w3.org/2000/svg">
<path d="M74.7741 65.2509C74.7741 84.296 58.1756 99.7351 37.7003 99.7351C17.225 99.7351 0.626465 84.296 0.626465 65.2509C0.626465 46.2058 17.225 30.7667 37.7003 30.7667C58.1756 30.7667 74.7741 46.2058 74.7741 65.2509Z" fill="#DE1C24"/>
<path fill-rule="evenodd" clip-rule="evenodd" d="M66.8895 12.6707C60.7846 16.7469 53.541 22.4944 48.4391 29.3671C43.2846 36.3107 41.6372 41.51 41.1816 44.7627C40.9528 46.3965 41.0191 47.5765 41.1154 48.2835C41.1637 48.6385 41.2203 48.8787 41.2532 49.0013C41.2697 49.0628 41.2804 49.095 41.2813 49.0976C41.2817 49.099 41.2797 49.0929 41.2748 49.0795C41.2723 49.0727 41.2691 49.0641 41.2651 49.0537L41.2586 49.0366L41.2548 49.027L41.2528 49.0219C41.2518 49.0193 41.2507 49.0167 37.9828 50.2396C34.715 51.4625 34.7139 51.4598 34.7128 51.457L34.7106 51.4514L34.706 51.4396L34.6959 51.4135C34.6888 51.395 34.6811 51.3744 34.6728 51.3517C34.6562 51.3063 34.6372 51.2524 34.6164 51.19C34.5748 51.0654 34.526 50.907 34.4745 50.7154C34.3715 50.3321 34.2581 49.8168 34.1705 49.1736C33.9949 47.8842 33.9252 46.097 34.2402 43.8479C34.8723 39.3347 37.0319 33.1051 42.7544 25.3962C48.5297 17.6164 56.5139 11.3489 62.9177 7.07312C66.1419 4.92036 69.0158 3.23942 71.0899 2.09338C72.1279 1.51985 72.9681 1.07887 73.5549 0.7784C73.8483 0.628128 74.0786 0.512888 74.2387 0.433677C74.3187 0.394068 74.3813 0.363457 74.4254 0.341968L74.4778 0.316588L74.4934 0.309056L74.5004 0.305672C74.5012 0.305306 74.5019 0.304977 76.0526 3.35153C77.6033 6.39807 77.6039 6.39781 77.6043 6.39759L77.599 6.40017L77.5668 6.41578C77.5362 6.43067 77.4875 6.4545 77.4215 6.48716C77.2895 6.55247 77.0885 6.65301 76.8253 6.78777C76.2988 7.05738 75.5245 7.4635 74.5571 7.99806C72.6203 9.06822 69.9197 10.6475 66.8895 12.6707Z" fill="#329F37"/>
</svg>
